<?xml version="1.0" encoding="UTF-8"?>
<!DOCTYPE svg PUBLIC "-//W3C//DTD SVG 1.1//EN" "http://www.w3.org/Graphics/SVG/1.1/DTD/svg11.dtd">
<svg class="img-fluid" id="outputsvg" xmlns="http://www.w3.org/2000/svg" style="transform: matrix(1, 0, 0, 1, 0, 0); transform-origin: 50% 50%; cursor: move; max-height: none; transition: transform 200ms ease-in-out;" width="487" height="539" viewBox="0 0 4870 5390"><g id="l4nhRaSPzewmZy1wNb3lgW3" fill="rgb(251,237,215)" style="transform: none;"><g style="transform: none;"><path id="p4rvkuxXc" d="M880 4930 c-108 -12 -176 -44 -251 -119 -49 -49 -71 -81 -87 -124 l-22 -58 0 -1815 c0 -1808 0 -1815 21 -1876 62 -184 199 -264 439 -256 l105 3 5 106 c5 91 10 111 33 151 55 94 163 151 245 129 81 -22 162 -96 192 -176 6 -16 14 -69 17 -118 l6 -87 298 0 299 0 0 78 c1 126 41 204 138 269 79 52 137 55 210 13 54 -32 107 -95 129 -153 6 -18 12 -71 12 -119 l1 -88 299 0 298 0 5 83 c7 136 60 224 163 273 88 42 174 24 250 -51 56 -56 77 -114 83 -222 l5 -93 97 0 c124 0 189 12 267 50 72 36 134 100 172 180 l26 55 0 1835 0 1835 -32 66 c-39 79 -106 147 -178 183 -120 58 -46 56 -1680 54 -825 0 -1529 -4 -1565 -8z m2800 -453 c55 -1 80 -7 94 -19 11 -10 23 -18 28 -18 4 0 8 -7 8 -15 0 -8 5 -15 11 -15 7 0 -1 -13 -18 -28 l-29 -29 -1350 5 c-1259 3 -1351 5 -1373 21 -34 24 -35 35 -7 67 l24 29 209 6 c182 5 2202 2 2403 -4z m78 -433 c12 -4 22 -13 22 -20 0 -8 7 -17 15 -20 22 -9 18 -51 -7 -68 -20 -14 -165 -16 -1356 -16 -1150 0 -1337 2 -1361 15 -49 25 -48 65 1 99 20 14 166 16 1343 16 726 0 1330 -3 1343 -6z m-1122 -476 c54 -37 70 -76 113 -271 23 -101 41 -192 41 -200 0 -13 30 -16 213 -19 188 -3 217 -5 252 -23 81 -41 108 -128 59 -192 -46 -61 -70 -67 -261 -71 l-173 -4 0 -36 c0 -21 19 -124 42 -229 l42 -193 162 0 c203 0 257 -10 306 -59 72 -73 56 -156 -40 -203 -41 -20 -65 -23 -199 -26 -149 -4 -153 -5 -153 -26 0 -11 19 -108 42 -214 l42 -193 -22 -45 c-18 -36 -32 -50 -68 -66 -25 -11 -56 -17 -68 -14 -42 10 -90 51 -112 96 -17 35 -114 421 -114 453 0 4 -110 7 -245 7 l-245 0 0 -44 c0 -24 13 -102 30 -174 44 -195 46 -224 22 -264 -25 -41 -73 -70 -117 -71 -42 -1 -109 42 -131 85 -10 18 -38 130 -64 248 l-46 215 -205 5 c-221 6 -251 13 -299 65 -32 35 -34 101 -4 141 52 70 97 82 307 83 l127 1 0 28 c0 29 -23 142 -66 324 l-25 106 -177 4 c-167 3 -180 4 -222 28 -87 49 -110 120 -61 189 37 51 81 64 239 69 169 5 158 -17 107 206 -42 186 -43 205 -9 246 68 80 149 79 221 -3 25 -28 36 -62 72 -213 23 -98 46 -190 50 -204 l8 -25 246 -3 247 -2 0 24 c0 14 -16 97 -35 186 -19 89 -35 171 -35 183 0 38 38 87 83 108 47 21 76 18 123 -13z"></path><path id="pCWip9J4o" d="M2090 2746 c0 -24 13 -102 29 -172 16 -71 34 -155 41 -186 l11 -58 245 0 244 0 0 38 c0 20 -19 124 -42 230 l-42 192 -243 0 -243 0 0 -44z"></path></g></g><g id="l3cJb2mEDmqwCA4QtTFR6nX" fill="rgb(217,187,154)" style="transform: none;"><g style="transform: none;"><path id="pNeW84QoI" d="M1359 4516 c-3 -3 -74 -6 -157 -7 -143 -1 -155 -2 -179 -23 -18 -16 -28 -37 -32 -67 -6 -39 -3 -46 19 -64 26 -21 225 -24 2525 -34 l260 -1 33 27 c24 21 32 36 32 60 0 18 -4 33 -10 33 -5 0 -7 7 -4 15 4 9 0 15 -8 15 -8 0 -24 9 -36 20 -18 17 -35 21 -94 20 -40 0 -584 2 -1209 5 -624 3 -1137 3 -1140 1z"></path><path id="poWeer58K" d="M1037 4060 c-14 -11 -29 -31 -33 -43 -4 -12 -12 -25 -18 -29 -8 -6 -8 -10 0 -15 6 -5 14 -18 18 -31 17 -54 -48 -52 1427 -52 1211 0 1364 1 1385 15 22 14 28 27 25 48 0 4 3 7 9 7 5 0 10 7 10 15 0 8 -4 15 -9 15 -5 0 -7 8 -4 19 3 12 -2 20 -16 24 -12 3 -21 12 -21 20 0 8 -10 17 -22 21 -13 3 -631 6 -1374 6 -1342 0 -1351 0 -1377 -20z"></path></g></g><g id="l3vG1cs2jZxNP9GXCvE3KWw" fill="rgb(102,125,135)" style="transform: none;"><g style="transform: none;"><path id="p19OB8PrEE" d="M890 5115 c-8 -2 -32 -6 -52 -10 -24 -4 -38 -11 -38 -20 0 -17 11 -18 88 -9 42 6 52 10 52 25 0 18 -12 21 -50 14z"></path><path id="p16mgFoDv6" d="M3940 5104 c0 -15 15 -23 73 -36 88 -22 117 -23 117 -4 0 13 -71 37 -152 52 -33 5 -38 4 -38 -12z"></path><path id="pXkKcjgsM" d="M738 5079 c-29 -16 -21 -29 17 -29 28 0 35 4 35 20 0 22 -24 26 -52 9z"></path><path id="pgVozyrpI" d="M631 5022 c-117 -70 -214 -186 -261 -311 l-20 -51 23 0 c17 0 26 9 35 33 7 18 12 43 12 55 0 13 6 22 15 22 10 0 15 10 15 30 0 23 4 30 20 30 15 0 20 7 20 25 0 16 6 25 16 25 22 0 44 25 44 49 0 17 6 21 30 21 17 0 30 5 30 10 0 6 7 10 15 10 8 0 15 4 15 8 0 4 16 14 35 21 27 9 35 18 35 37 0 13 -4 24 -8 24 -5 0 -37 -17 -71 -38z"></path><path id="pWADF8V1e" d="M4160 5031 c0 -29 15 -41 51 -41 10 0 19 -7 19 -15 0 -8 8 -15 19 -15 10 0 21 -9 24 -20 4 -15 14 -20 36 -20 28 0 31 -3 31 -31 0 -22 5 -32 20 -36 11 -3 20 -14 20 -24 0 -11 5 -19 10 -19 6 0 10 -7 10 -15 0 -9 9 -15 25 -15 14 0 25 4 25 9 0 17 -87 127 -130 164 -23 20 -69 52 -101 71 l-59 35 0 -28z"></path><path id="p7Hf6HxmY" d="M4440 4736 c0 -32 3 -36 25 -36 24 0 25 1 12 32 -19 46 -37 48 -37 4z"></path><path id="pdAhHgB2K" d="M4470 4661 c0 -10 3 -39 6 -65 5 -36 11 -46 25 -46 22 0 23 11 8 80 -7 31 -16 50 -25 50 -8 0 -14 -8 -14 -19z"></path><path id="p11VeIV7zf" d="M336 4558 c-3 -13 -6 -69 -6 -125 0 -96 1 -103 20 -103 19 0 20 7 20 125 0 100 -3 125 -14 125 -7 0 -16 -10 -20 -22z"></path><path id="peItbR5wS" d="M4490 1090 c0 -36 4 -50 14 -50 17 0 28 42 20 75 -11 46 -34 30 -34 -25z"></path><path id="pHJ4UIEMq" d="M335 1018 c11 -75 36 -151 67 -210 34 -64 48 -73 48 -29 0 39 -9 61 -25 61 -7 0 -15 18 -18 42 -3 24 -11 44 -16 46 -6 2 -11 16 -11 30 0 64 -12 102 -32 102 -18 0 -19 -5 -13 -42z"></path><path id="p1vDDRgYC" d="M4480 995 c0 -40 24 -49 34 -12 10 37 7 47 -14 47 -16 0 -20 -7 -20 -35z"></path><path id="pYNhs0KLT" d="M2350 942 l-30 -30 0 -277 0 -276 25 -24 c20 -21 33 -25 88 -25 105 0 101 -10 105 320 l3 278 -24 27 c-19 23 -34 29 -80 33 -52 4 -58 2 -87 -26z"></path><path id="pDwknnlV2" d="M1265 951 c-49 -21 -50 -27 -50 -317 l0 -272 24 -26 c22 -23 32 -26 93 -26 66 0 69 1 88 33 19 30 20 47 18 299 -3 260 -4 268 -25 289 -24 24 -111 36 -148 20z"></path><path id="pPctKGBWN" d="M3429 941 l-24 -19 -3 -279 c-3 -271 -2 -280 18 -306 20 -25 27 -27 96 -27 73 0 75 1 94 33 18 30 20 50 20 272 0 253 -7 305 -43 330 -32 22 -128 20 -158 -4z"></path><path id="pxfXEARiw" d="M4426 864 c-3 -9 -6 -24 -6 -35 0 -10 -7 -19 -15 -19 -8 0 -15 -9 -15 -20 0 -11 -7 -20 -15 -20 -11 0 -15 -11 -15 -37 l1 -38 30 35 c29 34 89 131 89 144 0 13 -48 5 -54 -10z"></path><path id="pX3vv58IV" d="M468 713 c11 -16 31 -38 44 -49 31 -30 139 -104 150 -104 4 0 8 11 8 25 0 21 -5 25 -30 25 -23 0 -30 4 -30 20 0 13 -7 20 -20 20 -11 0 -20 6 -20 13 0 24 -64 77 -94 77 l-27 0 19 -27z"></path><path id="pMYfph2Nv" d="M4254 656 c-3 -8 -4 -24 -2 -36 3 -20 5 -20 43 14 l40 35 -38 1 c-24 0 -40 -5 -43 -14z"></path><path id="pp6AvocKz" d="M4093 572 c-30 -12 -43 -22 -43 -35 0 -16 5 -18 31 -13 45 9 119 43 119 55 0 16 -58 11 -107 -7z"></path><path id="p6MlEZrHn" d="M682 558 c4 -13 119 -57 151 -58 10 0 17 7 17 20 0 16 -9 21 -50 26 -27 4 -50 10 -50 15 0 5 -16 9 -36 9 -24 0 -34 -4 -32 -12z"></path><path id="p13sivPPz3" d="M3928 533 c-30 -3 -38 -9 -38 -24 0 -22 17 -24 90 -8 31 7 50 16 50 25 0 14 -19 15 -102 7z"></path><path id="p5YiG6k5g" d="M860 516 c0 -19 32 -26 123 -26 44 0 77 -4 77 -10 0 -5 5 -10 10 -10 6 0 10 14 10 30 l0 30 -110 0 c-87 0 -110 -3 -110 -14z"></path><path id="pV4EHY3fJ" d="M3210 515 c0 -8 7 -15 15 -15 11 0 15 -13 15 -52 0 -67 9 -98 26 -98 11 0 14 20 14 90 l0 90 -35 0 c-24 0 -35 -5 -35 -15z"></path><path id="pIk2k4AKi" d="M3758 428 c-4 -54 -10 -94 -17 -96 -13 -4 -15 -72 -2 -72 18 0 53 95 58 161 4 49 10 69 19 69 8 0 14 7 14 15 0 10 -10 15 -34 15 l-33 0 -5 -92z"></path><path id="pIQxTO14Z" d="M1565 385 c-3 -30 -11 -55 -16 -55 -5 0 -9 -7 -9 -15 0 -8 -4 -15 -10 -15 -5 0 -10 -16 -10 -37 0 -35 1 -36 19 -19 28 25 58 93 66 149 7 43 5 47 -13 47 -16 0 -21 -9 -27 -55z"></path><path id="p1ERzEzmwF" d="M2150 397 c0 -35 32 -116 59 -147 l30 -35 1 38 c0 20 -4 37 -9 37 -5 0 -12 11 -15 25 -4 14 -11 25 -16 25 -6 0 -10 16 -10 35 0 28 -4 35 -20 35 -11 0 -20 -6 -20 -13z"></path><path id="pCH0pHfIp" d="M1060 373 c1 -62 77 -160 152 -197 61 -31 88 -33 88 -8 0 12 -16 24 -50 37 -27 11 -52 25 -54 32 -3 7 -15 13 -26 13 -13 0 -20 7 -20 20 0 13 -7 20 -20 20 -15 0 -20 7 -20 28 0 47 -11 72 -31 72 -12 0 -19 -7 -19 -17z"></path><path id="p1A5DHjqwr" d="M2640 295 c0 -53 13 -46 48 28 2 4 -8 7 -22 7 -23 0 -26 -4 -26 -35z"></path><path id="po2MxymJc" d="M3270 304 c0 -30 70 -102 127 -133 67 -35 223 -31 223 6 0 13 -10 14 -64 8 -54 -5 -73 -3 -112 14 -25 12 -53 21 -60 21 -8 0 -14 6 -14 14 0 8 -11 23 -25 34 -14 11 -25 25 -25 31 0 6 -11 11 -25 11 -14 0 -25 -3 -25 -6z"></path><path id="p1sg2k4ml" d="M2550 205 c0 -31 11 -32 47 0 l28 24 -37 1 c-34 0 -38 -3 -38 -25z"></path><path id="py6FQOMlM" d="M3640 205 c0 -31 11 -32 47 0 l28 24 -37 1 c-34 0 -38 -3 -38 -25z"></path><path id="p90YrWnME" d="M1360 170 c0 -21 10 -24 48 -14 36 10 27 34 -13 34 -28 0 -35 -4 -35 -20z"></path><path id="pyzMAL7C5" d="M2320 173 c0 -7 2 -13 4 -13 2 0 27 -4 55 -10 59 -11 151 4 151 24 0 9 -28 13 -105 13 -81 0 -105 -3 -105 -14z"></path></g></g><g id="l4FWusZgYVztPxwEYECV7Ze" fill="rgb(32,59,78)" style="transform: none;"><g style="transform: none;"><path id="p1FR2xPoIG" d="M845 5105 c-88 -16 -111 -25 -208 -83 -134 -79 -223 -192 -283 -357 -18 -47 -19 -139 -22 -1820 -3 -1318 -1 -1788 8 -1840 24 -144 72 -236 174 -332 132 -126 222 -164 411 -172 l130 -6 6 -75 c3 -41 13 -91 21 -111 22 -51 82 -107 146 -137 46 -21 65 -24 121 -20 149 11 242 111 257 276 l7 72 267 0 267 0 6 -80 c4 -64 11 -91 35 -133 55 -98 142 -143 262 -135 151 11 250 120 250 276 l0 72 275 0 275 0 0 -75 c0 -90 14 -128 69 -188 60 -64 126 -91 216 -85 153 10 255 118 255 269 l0 66 93 6 c111 8 226 36 312 77 119 57 246 203 301 345 18 49 19 100 22 1847 2 1946 5 1865 -51 1988 -71 161 -240 300 -420 347 l-89 23 -1522 -1 c-1205 -1 -1536 -4 -1591 -14z m3133 -210 c140 -33 237 -107 295 -224 l32 -66 0 -1805 0 -1805 -26 -55 c-72 -152 -211 -230 -409 -230 l-67 0 -5 93 c-6 108 -27 166 -83 222 -53 53 -114 77 -190 77 -165 -1 -273 -115 -283 -299 l-5 -83 -268 0 -269 0 0 81 c0 101 -12 144 -59 205 -103 135 -275 145 -402 22 -62 -61 -82 -109 -87 -215 l-4 -93 -268 0 -267 0 -6 90 c-7 104 -28 160 -81 213 -132 132 -340 108 -433 -51 -23 -40 -28 -60 -33 -151 l-5 -106 -75 -3 c-206 -9 -350 81 -409 256 -21 61 -21 69 -21 1846 l0 1785 22 58 c16 43 38 75 87 124 75 75 143 107 251 119 36 4 727 8 1535 8 1271 2 1479 0 1533 -13z m-1490 -3991 c23 -26 23 -28 20 -274 -3 -227 -5 -250 -22 -269 -27 -30 -80 -28 -111 4 l-25 24 0 246 0 247 30 30 c36 36 71 33 108 -8z m-1103 -5 c19 -18 20 -35 23 -257 2 -223 1 -239 -18 -269 -17 -28 -26 -33 -58 -33 -28 0 -45 7 -63 26 l-24 26 0 242 c0 199 3 246 15 261 32 39 88 41 125 4z m2172 16 c35 -25 43 -77 43 -300 0 -192 -2 -213 -20 -242 -17 -29 -25 -33 -64 -33 -36 0 -48 5 -66 27 -20 26 -21 35 -18 276 3 248 3 249 27 268 28 23 69 24 98 4z"></path><path id="pIti3TXPG" d="M1705 3615 c-22 -8 -55 -30 -72 -49 -30 -32 -33 -41 -33 -98 0 -35 15 -128 33 -208 l34 -145 -141 -6 c-190 -8 -236 -31 -264 -131 -20 -74 13 -145 89 -188 42 -24 54 -25 221 -28 l177 -4 25 -106 c14 -59 32 -141 41 -182 9 -41 18 -83 21 -92 5 -17 -6 -18 -123 -19 -210 -1 -255 -13 -307 -83 -17 -22 -21 -42 -21 -101 0 -64 3 -77 25 -100 48 -52 78 -59 299 -65 l205 -5 46 -215 c26 -118 54 -230 64 -248 9 -17 35 -44 58 -60 34 -22 53 -27 102 -27 73 0 123 26 151 78 24 45 17 135 -24 316 -17 73 -31 139 -31 147 0 12 38 14 214 14 l214 0 7 -32 c24 -115 87 -378 97 -403 42 -110 149 -154 255 -106 52 24 83 79 83 148 -1 26 -18 125 -39 219 l-38 172 151 4 c133 3 157 6 198 26 59 29 88 74 88 136 0 93 -50 156 -140 175 -28 6 -124 11 -214 11 l-162 0 -42 193 c-23 105 -42 195 -42 199 0 3 78 8 173 10 193 4 215 10 264 75 49 64 33 180 -32 231 -41 32 -113 42 -310 42 -163 0 -185 2 -185 16 0 48 -84 391 -103 419 -50 77 -145 104 -230 67 -60 -27 -87 -69 -87 -139 0 -42 48 -297 65 -351 4 -10 -41 -12 -212 -10 l-216 3 -8 25 c-4 14 -27 106 -50 204 -36 151 -47 185 -72 213 -54 61 -131 84 -202 58z m883 -1047 c23 -106 42 -196 42 -200 0 -5 -96 -8 -214 -8 l-215 0 -11 58 c-7 31 -25 115 -41 186 -16 70 -29 134 -29 142 0 12 38 14 213 14 l213 0 42 -192z"></path></g></g></svg>